<?xml version="1.0" standalone="no"?>
<!DOCTYPE svg PUBLIC "-//W3C//DTD SVG 20010904//EN"
 "http://www.w3.org/TR/2001/REC-SVG-20010904/DTD/svg10.dtd">
<svg version="1.0" xmlns="http://www.w3.org/2000/svg"
 width="225.000000pt" height="225.000000pt" viewBox="0 0 225.000000 225.000000"
 preserveAspectRatio="xMidYMid meet">

<g transform="translate(0.000000,225.000000) scale(0.100000,-0.100000)"
fill="yellow" stroke-width="2px">
<path d="M920 1985 c-362 -74 -640 -388 -667 -752 -3 -46 -9 -83 -13 -83 -15
0 -51 49 -60 81 -6 19 -10 127 -10 241 0 215 -1 221 -42 210 -17 -4 -18 -24
-18 -233 0 -185 3 -237 16 -267 19 -46 57 -87 95 -103 19 -7 31 -21 35 -38 3
-14 9 -43 14 -64 8 -37 7 -38 -30 -57 -46 -24 -105 -91 -121 -137 -6 -19 -9
-63 -7 -98 12 -190 222 -289 383 -179 l36 24 51 -41 c62 -48 210 -122 293
-144 91 -25 273 -31 371 -12 339 64 601 325 670 666 22 110 15 284 -15 389
-87 302 -336 533 -643 596 -92 19 -248 19 -338 1z m356 -75 c261 -66 459 -251
551 -515 25 -74 27 -91 27 -235 0 -142 -2 -162 -27 -235 -79 -236 -266 -423
-502 -502 -72 -25 -94 -27 -230 -28 -165 0 -211 9 -340 70 -70 32 -185 111
-185 127 0 4 25 8 56 8 55 0 57 -1 102 -52 55 -61 109 -88 177 -88 75 0 122
17 170 61 107 98 112 251 12 357 -53 56 -116 72 -281 72 l-143 0 -6 30 c-8 37
-67 103 -111 124 -24 11 -63 16 -130 16 l-96 0 0 73 c0 147 69 330 170 454
101 125 253 222 410 263 104 26 270 27 376 0z m-749 -875 c26 -15 63 -62 63
-79 0 -3 -56 -6 -124 -6 l-124 0 -6 38 c-4 20 -10 46 -13 56 -5 18 0 19 85 14
60 -4 99 -11 119 -23z m456 -169 c174 -74 121 -336 -68 -336 -58 0 -122 32
-143 72 -35 65 -44 69 -144 66 l-91 -3 -32 -45 c-45 -64 -87 -90 -147 -90 -62
0 -107 19 -141 59 -74 88 -47 219 55 270 41 20 58 21 361 21 247 0 325 -3 350
-14z"/>
<path d="M799 1422 c-52 -43 -11 -131 56 -118 38 8 55 30 55 72 0 57 -64 83
-111 46z"/>
<path d="M1292 1424 c-47 -32 -16 -124 42 -124 37 0 69 32 69 68 0 62 -60 92
-111 56z"/>
<path d="M762 1138 c-26 -26 -13 -46 46 -68 143 -55 348 -63 498 -21 104 29
124 40 124 67 0 33 -28 37 -92 15 -144 -50 -315 -52 -471 -7 -102 30 -90 29
-105 14z"/>
<path d="M332 798 c-7 -7 -12 -22 -12 -35 0 -17 -6 -23 -22 -23 -34 0 -50 -15
-46 -41 2 -19 10 -25 35 -27 28 -3 32 -7 35 -35 2 -26 7 -32 27 -32 19 0 27 7
33 32 6 25 14 32 36 35 20 2 28 9 30 27 4 27 -12 41 -47 41 -18 0 -22 4 -18
20 3 11 -1 27 -10 35 -18 18 -25 19 -41 3z"/>
<path d="M954 748 c-9 -28 20 -52 47 -37 22 11 24 30 7 47 -19 19 -46 14 -54
-10z"/>
<path d="M851 683 c-13 -26 1 -45 30 -41 18 2 24 9 24 28 0 32 -39 41 -54 13z"/>
<path d="M1952 1950 c-61 -37 -69 -105 -18 -156 43 -43 90 -46 135 -8 57 48
47 135 -19 169 -39 20 -58 19 -98 -5z m78 -65 c20 -25 8 -50 -25 -50 -24 0
-31 5 -33 24 -6 37 34 55 58 26z"/>
<path d="M2016 724 c-22 -21 -3 -56 27 -52 37 5 33 67 -5 68 -4 0 -14 -7 -22
-16z"/>
<path d="M1777 409 c-21 -12 -22 -37 -1 -60 15 -16 15 -20 0 -41 -21 -30 -20
-45 3 -58 15 -7 25 -5 42 9 23 18 24 18 51 -2 22 -17 30 -18 43 -7 20 16 19
39 -2 62 -15 17 -15 19 0 36 39 43 -1 87 -46 52 -16 -13 -28 -16 -32 -10 -12
19 -40 29 -58 19z"/>
</g>
</svg>
